<svg xmlns="http://www.w3.org/2000/svg" width="22" height="24.602" viewBox="0 0 17.292 24.602"><g transform="translate(-14 -1)"><g transform="translate(14 1)"><path d="M2.6,1.305A1.3,1.3,0,0,0,1.305,2.6V22A1.3,1.3,0,0,0,2.6,23.3h12A1.3,1.3,0,0,0,15.9,22V8.173c-.721-.971-2.965-3.5-4.236-4.94-.806-.91-1.337-1.51-1.687-1.928H2.6M2.6,0h8c0,.2,7.6,8.4,6.6,8V22a2.6,2.6,0,0,1-2.6,2.6H2.6A2.6,2.6,0,0,1,0,22V2.6A2.6,2.6,0,0,1,2.6,0Z" transform="translate(0)" fill="#2b2b2b"/><path d="M9528-4775.711v7.143h6.2Z" transform="translate(-9517.799 4776.569)" fill="#2b2b2b"/></g><g transform="translate(14 8.236)"><rect width="20" height="17.291" fill="none"/><g transform="translate(2.161 2.161)"><path d="M14.527,11.775V5.882a2.882,2.882,0,0,0-5.764,0v7.2a1.441,1.441,0,0,1-2.882,0V7.193a2.161,2.161,0,1,0-1.441,0v5.893a2.882,2.882,0,1,0,5.764,0v-7.2a1.441,1.441,0,0,1,2.882,0v5.893a2.161,2.161,0,1,0,1.441,0ZM5.161,5.882a.72.72,0,1,1,.72-.72A.723.723,0,0,1,5.161,5.882Zm8.645,8.645a.72.72,0,1,1,.72-.72A.723.723,0,0,1,13.807,14.527Z" transform="translate(-3 -3)" fill="#2b2b2b"/></g></g></g></svg>