<svg xmlns="http://www.w3.org/2000/svg" xmlns:xlink="http://www.w3.org/1999/xlink" width="22" height="22" viewBox="0 0 22 22"><defs><clipPath id="b"><rect width="22" height="22"/></clipPath></defs><g id="a" clip-path="url(#b)"><g transform="translate(-344 -165)"><path d="M2.072,1.275a.8.8,0,0,0-.8.8V12.594a.8.8,0,0,0,.8.8H19.928a.8.8,0,0,0,.8-.8V2.072a.8.8,0,0,0-.8-.8H2.072M2.072,0H19.928A2.072,2.072,0,0,1,22,2.072V12.594a2.072,2.072,0,0,1-2.072,2.072H2.072A2.072,2.072,0,0,1,0,12.594V2.072A2.072,2.072,0,0,1,2.072,0Z" transform="translate(344 169)" fill="#373737"/><path d="M1.878,1.275a.6.6,0,1,0,.6.6.6.6,0,0,0-.6-.6M1.878,0A1.878,1.878,0,1,1,0,1.878,1.878,1.878,0,0,1,1.878,0Z" transform="translate(348.663 172.173)" fill="#373737"/><path d="M8922.4-4429.335h-10.838l.072-.7c0-.04.466-3.954,5.415-3.954,4.97,0,5.3,3.937,5.3,3.977Zm-9.288-1.276h7.8c-.318-.834-1.234-2.106-3.863-2.106C8914.46-4432.718,8913.478-4431.445,8913.11-4430.611Z" transform="translate(-8566.667 4610.277)" fill="#373737"/><path d="M6.209-2.725H0V-4H6.209Z" transform="translate(356.741 178.298)" fill="#373737"/><path d="M6.209-2.725H0V-4H6.209Z" transform="translate(356.741 180.672)" fill="#373737"/><path d="M6.209-2.725H0V-4H6.209Z" transform="translate(356.741 183.046)" fill="#373737"/><path d="M6.209-2.725H0V-4H6.209Z" transform="translate(356.741 175.924)" fill="#373737"/></g></g></svg>