<svg xmlns="http://www.w3.org/2000/svg" width="20" height="24.147" viewBox="0 0 16.972 24.147"><g transform="translate(-9.947)"><g transform="translate(9.947 0)"><path d="M2.552,1.281A1.272,1.272,0,0,0,1.281,2.552V21.595a1.272,1.272,0,0,0,1.271,1.271H14.331A1.272,1.272,0,0,0,15.6,21.595V8.022c-.708-.953-2.91-3.44-4.158-4.849-.791-.893-1.313-1.482-1.656-1.892H2.552M2.552,0H10.4c0,.2,7.46,8.245,6.478,7.853V21.6a2.552,2.552,0,0,1-2.552,2.552H2.552A2.552,2.552,0,0,1,0,21.595V2.552A2.552,2.552,0,0,1,2.552,0Z" transform="translate(0 0)" fill="#2b2b2b"/><path d="M9528-4775.71v7.012h6.085Z" transform="translate(-9517.987 4776.552)" fill="#2b2b2b"/><path d="M9.423-2.719H0V-4H9.423Z" transform="translate(3.631 24.403)" fill="#2b2b2b"/><path d="M9.423-2.719H0V-4H9.423Z" transform="translate(3.631 22.006)" fill="#2b2b2b"/></g><g transform="translate(12.765 7.874)"><g transform="translate(5.942 3.717)"><path d="M4.942,8.49,3.8,7.347l-.389.387L4.942,9.266,8.232,5.977,7.845,5.59Z" transform="translate(-3.41 -5.59)" fill="#2b2b2b"/><path d="M4.942,9.62,3.056,7.733,3.8,6.994,4.942,8.137l2.9-2.9.74.74ZM3.764,7.734,4.942,8.912,7.878,5.977l-.033-.033-2.9,2.9L3.8,7.7Z" transform="translate(-3.41 -5.59)" fill="#2b2b2b"/></g><path d="M0,9.624H9.624V0H0Z" fill="none"/><path d="M9.416,3.8H3.8V9.416H8.614v.8H3.8a.8.8,0,0,1-.8-.8V3.8A.8.8,0,0,1,3.8,3H9.416a.8.8,0,0,1,.8.8V6.609h-.8Z" transform="translate(-1.797 -1.797)" fill="#2b2b2b"/><path d="M3.8,2.75H9.416A1.053,1.053,0,0,1,10.468,3.8V6.859h-1.3V4.052H4.052V9.166H8.864v1.3H3.8A1.053,1.053,0,0,1,2.75,9.416V3.8A1.053,1.053,0,0,1,3.8,2.75ZM9.968,6.359V3.8a.553.553,0,0,0-.552-.552H3.8A.553.553,0,0,0,3.25,3.8V9.416a.553.553,0,0,0,.552.552H8.364v-.3H3.552V3.552H9.666V6.359Z" transform="translate(-1.797 -1.797)" fill="#2b2b2b"/></g></g></svg>