<svg xmlns="http://www.w3.org/2000/svg" xmlns:xlink="http://www.w3.org/1999/xlink" width="22" height="22" viewBox="0 0 22 22"><defs><clipPath id="b"><rect width="22" height="22"/></clipPath></defs><g id="a" clip-path="url(#b)"><g transform="translate(-10792.001 8091)"><g transform="translate(10702.297 -8259)"><path d="M2.577,1.115A1.463,1.463,0,1,0,4.04,2.577,1.463,1.463,0,0,0,2.577,1.115M2.577,0A2.577,2.577,0,1,1,0,2.577,2.577,2.577,0,0,1,2.577,0Z" transform="translate(98.105 173)" fill="#373737"/><path d="M1.951,1.115a.836.836,0,1,0,.836.836.836.836,0,0,0-.836-.836M1.951,0A1.951,1.951,0,1,1,0,1.951,1.951,1.951,0,0,1,1.951,0Z" transform="translate(105.21 173.279)" fill="#373737"/><path d="M1.951,1.115a.836.836,0,1,0,.836.836.836.836,0,0,0-.836-.836M1.951,0A1.951,1.951,0,1,1,0,1.951,1.951,1.951,0,0,1,1.951,0Z" transform="translate(92.532 173.697)" fill="#373737"/><path d="M7567.53-4208.937h-1.115v-3.5a10.575,10.575,0,0,0-5.136-1.7,12.574,12.574,0,0,0-5.5,1.719v3.481h-1.114v-4.108l.261-.164a13.969,13.969,0,0,1,6.354-2.043,11.8,11.8,0,0,1,6.016,2.061l.235.167Z" transform="translate(-7460.415 4393.641)" fill="#373737"/><path d="M7565.283-4208.854h-1.114v-4.222a6.809,6.809,0,0,0-3.263-1.059,8.584,8.584,0,0,0-3.77,1.229l-.592-.944a9.581,9.581,0,0,1,4.362-1.4,8.128,8.128,0,0,1,4.143,1.417l.234.167Z" transform="translate(-7453.58 4392.849)" fill="#373737"/><path d="M7555.784-4209.084h-1.114v-4.59l.232-.167a8.15,8.15,0,0,1,4.144-1.416,9.576,9.576,0,0,1,4.362,1.4l-.592.944a8.585,8.585,0,0,0-3.77-1.229,6.811,6.811,0,0,0-3.262,1.06Z" transform="translate(-7464.966 4393.006)" fill="#373737"/></g><path d="M5.5.5H0v-1H5.5Z" transform="translate(10792.001 -8075.5)" fill="#373737"/><path d="M12.844.5H0v-1H12.844Z" transform="translate(10796.563 -8074.296)" fill="#373737"/><path d="M5.5.5H0v-1H5.5Z" transform="translate(10808.501 -8075.5)" fill="#373737"/></g></g></svg>