<svg xmlns="http://www.w3.org/2000/svg" xmlns:xlink="http://www.w3.org/1999/xlink" width="22" height="22" viewBox="0 0 22 22"><defs><clipPath id="b"><rect width="22" height="22"/></clipPath></defs><g id="a" clip-path="url(#b)"><g transform="translate(-590 -158)"><path d="M1.333,1.333V12.142H19.841V1.333H1.333M.667,0H20.508a.667.667,0,0,1,.667.667V12.808a.667.667,0,0,1-.667.667H.667A.667.667,0,0,1,0,12.808V.667A.667.667,0,0,1,.667,0Z" transform="translate(590 164.192)" fill="#2b2b2b"/><path d="M1.333,1.333V2.679H9.575V1.333H1.333M.833,0h9.242a.833.833,0,0,1,.833.833V4.012H0V.833A.833.833,0,0,1,.833,0Z" transform="translate(595.133 161)" fill="#2b2b2b"/><path d="M21.031-2.667H0V-4H21.031Z" transform="translate(590.161 172.498)" fill="#2b2b2b"/><path d="M1.333,1.333v1.5h1.5v-1.5h-1.5M.667,0H3.5a.667.667,0,0,1,.667.667V3.5a.667.667,0,0,1-.667.667H.667A.667.667,0,0,1,0,3.5V.667A.667.667,0,0,1,.667,0Z" transform="translate(598.662 168.042)" fill="#2b2b2b"/></g></g></svg>